<?xml version="1.0" encoding="UTF-8"?><svg id="Layer_2" xmlns="http://www.w3.org/2000/svg" viewBox="0 0 400 400"><defs><style>.cls-1{fill:#e30613;}.cls-2{fill:none;stroke:#1d1d1b;stroke-linecap:round;stroke-linejoin:round;stroke-width:7.46px;}</style></defs><g><path class="cls-1" d="M270.62,216.75s9.21,13.49,8.88,22.69c0,0,3.29,33.88-.33,51.97-.69,3.43-1.26,7.5-1.75,11.85,0,0-16.33-13.34-23.43-17.13-7.1-3.79-8.73,11.82-8.73,11.82-5.07-12.64-10.31-30.66-10.31-30.66,0,0-1.3-13.82,2.16-24.62,3.46-10.79,8.21-33.24,.44-43.18,.54,.51,16.47,15.37,27.06,17.77,2.34,.54,4.42,.46,6.01-.51Z"/><path class="cls-1" d="M294.63,371.34s55.9,15.53,35.76,16.98h-51.14s-25.73,1.2-26.16-11.32c-.43-12.53,0-61.76-5.61-73.86-.73-1.56-1.47-3.31-2.22-5.19,0,0,1.63-15.61,8.73-11.82,7.1,3.79,23.43,17.13,23.43,17.13-2.09,18.65-2.52,42.43-2.52,42.43,0,0-2.31,13.15,19.73,25.65Z"/><path class="cls-1" d="M196.08,373.98c-.43,2.16,20.97,19.43,2.4,17.27,0,0-39.11-10.36-40.41-14.25s-4.32-8.64,0-12.96,9.5-3.89,9.5-6.91-.86-24.19-6.04-37.58c-1.39-3.59-3.22-8.52-5.15-13.81,0,0,19.12-29.52,32.79,1.72,0,0-1.3,30.23-.87,33.69,.44,3.46,.44,13.39,1.3,17.71s6.91,12.96,6.48,15.12Z"/><path class="cls-1" d="M191.33,268.59c0,5.18,5.18,22.89-2.16,38.87-13.67-31.24-32.79-1.72-32.79-1.72-5.26-14.42-11.27-31.54-11.27-31.54,0,0-4.32-38.01,1.73-51.83,0,0,16.31,31.2,30.23,15.98,2.6,2.6,14.26,25.06,14.26,30.24Z"/><path class="cls-1" d="M260.1,101.3c.98,4.6,17.1,47.36,12.17,106.9l-1.65,8.55c-1.59,.97-3.67,1.05-6.01,.51,0,0,7.45-59.21-25.42-107.24,0,0,12.51-15.28,11.98-24.7,0,0,7.94,11.37,8.93,15.98Z"/><path class="cls-1" d="M239.19,110.02c32.87,48.03,25.42,107.24,25.42,107.24-10.59-2.4-26.52-17.26-27.06-17.77h-.01c-7.77-9.94-32.82-34.13-35.41-44.93-2.6-10.79-8.64-17.27-8.64-17.27-3.96-10.3-6.59-49.54-4.07-46.16l.19,.33c2.83,5.66,49.58,18.56,49.58,18.56Z"/><path class="cls-1" d="M251.17,85.32c.53,9.42-11.98,24.7-11.98,24.7,0,0-46.75-12.9-49.58-18.56-.07-.14-.13-.25-.19-.33l-9.45-15.83V34.78L227.81,7.19c-1.01,1.01,13.31,15.58,15.83,33.16,0,0,8.03,31.15,7.53,44.97Z"/><path class="cls-1" d="M179.97,34.78v40.52s-5.95,11.91-22.38,20.12c-16.44,8.22-30.3,23.58-30.3,23.58,.27-1.54,.59-2.93,.98-4.17,0,0-8.64-36.72-7.34-53.13,0,0,0-36.28,19.43-56.15-1.69,6.32,39.61,29.23,39.61,29.23Z"/><path class="cls-1" d="M193.49,137.29s-3.03,14.25-3.03,20.3-4.75,56.58-11.23,69.97c0,0-4.75,8.2-2.16,10.79-13.92,15.22-30.23-15.98-30.23-15.98,0,0-18.57-43.19-18.57-47.94,0-4.36-4.01-38.23-.98-55.43,0,0,13.86-15.36,30.3-23.58,16.43-8.21,22.38-20.12,22.38-20.12l9.45,15.83c-2.52-3.38,.11,35.86,4.07,46.16Z"/></g><g><path class="cls-2" d="M237.54,199.48c-7.77-9.93-32.82-34.12-35.41-44.92-2.6-10.79-8.64-17.27-8.64-17.27,0,0-3.03,14.25-3.03,20.3s-4.75,56.58-11.23,69.97c0,0-4.75,8.2-2.16,10.79s14.26,25.06,14.26,30.24,5.18,22.89-2.16,38.87c0,0-1.3,30.23-.87,33.69,.44,3.46,.44,13.39,1.3,17.71s6.91,12.96,6.48,15.12,20.97,19.43,2.4,17.27c0,0-39.11-10.36-40.41-14.25s-4.32-8.64,0-12.96,9.5-3.89,9.5-6.91-.86-24.19-6.04-37.58c-1.39-3.59-3.22-8.52-5.15-13.81-5.26-14.42-11.27-31.54-11.27-31.54,0,0-4.32-38.01,1.73-51.83,0,0-18.57-43.19-18.57-47.94,0-4.36-4.01-38.23-.98-55.43,.27-1.54,.59-2.93,.98-4.17,0,0-8.64-36.72-7.34-53.13,0,0,0-36.28,19.43-56.15,0,0-8.64-42.33-14.25-48.37l-5.62-6.05s0,24.62-12.52,35.42l-3.46,3.89s8.21,25.91-9.5,83.35c0,0,.19,1.36,.41,3.42,.5,4.82,1.1,13.51-.41,17.75-2.16,6.05,1.3,20.73-12.09,26.78,0,0-22.03,1.29-22.89-9.94-.87-11.23-3.46-23.75,10.36-41.46l1.56-2.57,1.96-3.24s-6.44-32.82-3.53-54.63c2.91-21.81,3.53-29.29,3.53-29.29,0,0,6.03-5.19,6.65-4.36,0,0-5.19-32.82-2.49-41.75,2.7-8.93,8.56-16.99,8.56-16.99,0,0-3.01-26.88,2.01-34.41,5.03-7.54,16.33-24.37,36.93-29.14,0,0,21.85-21.36,22.36-25.12,0,0-15.58-23.12-15.58-28.39s1.26-18.09-1.51-21.6c-2.76-3.52-5.27-18.09-5.27-18.09,0,0,4.49-17.56,10.55-22.61,13.56-11.3,22.46-15.28,29.39-14.32,9.04,1.26,23.61,7.03,26.38,24.62,2.76,17.58,2.51,43.71-2.26,53.76,0,0,.25,4.52,4.02,9.79,3.76,5.28,26.12,32.91,26.12,32.91,0,0,3.1,4.13,4.42,4.72,.14,.06,.26,.08,.35,.06,1.01-.26,17.84-3.02,22.61,1.5,4.78,4.52,19.35,27.13,20.1,28.89s4.77,9.55,3.52,18.34l1.22,2.48,8.57,17.36s13.32,43.46,12.81,49.99c-.28,3.62,.14,7,.57,9.3,.34,1.86,.69,3.01,.69,3.01L311.15-.09s12.12,14.57,17.39,42.7c5.28,28.14,10.81,40.95,10.81,40.95,0,0,13.56-1.76,20.09,3.77,6.53,5.52,20.1,11.3,20.35,23.11,0,0-7.79-1.76-8.04,1.25-.25,3.02,8.04,37.18,8.04,37.18,0,0,3.32,8.79-10.02,5.53-13.34-3.27-24.4-3.52-30.68-19.34-6.28-15.83-9.04-35.42-9.04-35.42,0,0-6.53-1.01-7.54-3.02-1-2.01-37.17-53.25-37.17-53.25,0,0-13.32-19.6-13.07-24.62l-3.01-35.67-22.86-23.37s-7.04,24.62-9.3,29.14c-2.26,4.53-8.29,17.34-9.29,18.34s13.31,15.58,15.83,33.16c0,0,8.03,31.15,7.53,44.97,0,0,7.94,11.37,8.93,15.98,.98,4.6,17.1,47.36,12.17,106.9l-1.65,8.55s9.21,13.49,8.88,22.69c0,0,3.29,33.88-.33,51.97-.69,3.43-1.26,7.5-1.75,11.85-2.09,18.65-2.52,42.43-2.52,42.43,0,0-2.31,13.15,19.73,25.65,0,0,55.9,15.53,35.76,16.98h-51.14s-25.73,1.2-26.16-11.32c-.43-12.53,0-61.76-5.61-73.86-.73-1.56-1.47-3.31-2.22-5.19-5.07-12.64-10.31-30.66-10.31-30.66,0,0-1.3-13.82,2.16-24.62,3.46-10.79,8.21-33.24,.44-43.18"/><path class="cls-2" d="M189.17,307.46c-13.67-31.24-32.79-1.72-32.79-1.72"/><path class="cls-2" d="M277.42,303.26s-16.33-13.34-23.43-17.13c-7.1-3.79-8.73,11.82-8.73,11.82"/><path class="cls-2" d="M146.84,222.37s16.31,31.2,30.23,15.98"/><path class="cls-2" d="M237.54,199.48h.01c.54,.52,16.47,15.38,27.06,17.78,2.34,.54,4.42,.46,6.01-.51"/><path class="cls-2" d="M251.17,85.32c.53,9.42-11.98,24.7-11.98,24.7,32.87,48.03,25.42,107.24,25.42,107.24"/><path class="cls-2" d="M239.19,110.02s-46.75-12.9-49.58-18.56c-.07-.14-.13-.25-.19-.33-2.52-3.38,.11,35.86,4.07,46.16"/><path class="cls-2" d="M189.61,91.46l-.19-.33-9.45-15.83s-5.95,11.91-22.38,20.12c-16.44,8.22-30.3,23.58-30.3,23.58"/><path class="cls-2" d="M80.56-23.75s3.45,20.88,7.48,21.55,16.47-7.36,16.47-7.36"/><path class="cls-2" d="M71.95,67.77s6.41,21.61,23.47,9.44"/><path class="cls-2" d="M179.97,75.3V34.78L227.81,7.19c6.2-21.5-41.88-63.41-41.88-63.41,0,0-38.49,35.34-45.57,61.77-1.69,6.32,39.61,29.23,39.61,29.23"/></g></svg>