<?xml version="1.0" encoding="UTF-8"?><svg id="Layer_2" xmlns="http://www.w3.org/2000/svg" viewBox="0 0 400 400"><defs><style>.cls-1{fill:#e30613;}.cls-2{fill:none;stroke:#1d1d1b;stroke-linecap:round;stroke-linejoin:round;stroke-width:9.96px;}</style></defs><g><path class="cls-1" d="M366.45,182.9c10.08,15.71,9.79,39.13,9.79,39.13,0,0-.3,64.03-.01,83.89,0,0-22.59,37.2-23.42,28.04-.82-9.16,1.49-31.3,1.49-31.3,0,0-26.39-89.52-27.87-96.93s3.56-25.2,3.56-25.2l12.02,5.87,10.8-25.73s3.56,6.52,13.64,22.23Z"/><path class="cls-1" d="M376.23,305.92c.3,19.86-7.7,37.65-7.7,37.65,0,0-14.83,21.05-33.8,19.86-18.97-1.18-15.71-20.16-13.93-26.68,1.78-6.52,16.6-11.86,19.86-12.15,3.26-.3,13.64-21.94,13.64-21.94,0,0-2.31,22.14-1.49,31.3,.83,9.16,23.42-28.04,23.42-28.04Z"/><path class="cls-1" d="M353.41,120.06c2.96,9.78-.6,40.61-.6,40.61l-10.8,25.73-12.02-5.87s-3.56-5.63-6.82-10.67-12.15-19.27-12.15-19.27c-4.05-16.92,7.54-77.06,7.85-78.66,.01-.02,.01-.03,.01-.03,4.89,4.18,10.71,7.98,17.63,11.1,0,0,13.93,27.28,16.9,37.06Z"/><path class="cls-1" d="M145.4,83.67c.55,.88,19.23,30.86,16.85,50.5,0,0-22.44,35.1-21,38.27,0,0-23.02,8.32-24.64,8.72-1.61,.41-10.57-19.68-10.57-19.68,1.82-5.77,2.99-13.57,2.29-23.92-2.01-30,12.36-39.07,14.88-41.84,0,0,11.32-4.99,22.18-12.06h.01Z"/><path class="cls-1" d="M38.77,322.82c-2.27-2.78,0-8.57,0-19.41s13.36-16.64,14.87-18.91c1.51-2.26,13.86-10.08,13.86-10.08-.25-8.82,6.56-33.52,7.56-40.07,1.01-6.56,21.68-58.23,21.68-58.23,0,0,5.84-3.68,9.3-14.64,0,0,8.96,20.09,10.57,19.68,1.62-.4,24.64-8.72,24.64-8.72,1.44,3.16-.87,23.31-2.59,27.62-1.73,4.32-18.13,30.5-18.13,30.5l-37.69,55.25s6.67,3.67,.85,13.98c-5.83,10.31-6.11,18.99-6.11,18.99-.75,26.47-4.78,25.71-13.35,34.03s-14.62-7.56-15.13-12.6c-.5-5.04-8.06-14.62-10.33-17.39Z"/></g><g><path class="cls-2" d="M315.78,278.9c-.14,5.82-.32,9.83-.32,9.83,3.56,25.49-6.52,54.54-12.45,70.55s-18.99,37.68-18.99,37.68c0,5.8-.58,17.99-4.07,21.48s-5.22,29.61-5.22,29.61c4.64,12.77,1.16,53.41,0,63.28s-23.22,61.55-26.13,69.09c-2.9,7.55,3.49,31.94,3.49,31.94,0,0,37.44,16.83,26.41,29.61-11.03,12.77-52.54-15.95-52.54-15.95,0,0-.37-13.26-.37-17.95s-4.98-9.37-7.32-15.53c-2.35-6.15,8.78-16.99,10.25-21.97,1.46-4.98,0-49.79-1.17-59.75s1.46-50.39,1.46-50.39c0,0,10.25-27.53,10.25-31.63s4.69-23.44,4.11-25.49c-.59-2.05-5.28-33.98-5.57-38.37-.29-4.4-10.84,.29-11.13,2.93-.29,2.63-22.56,31.05-25.19,35.44-2.64,4.39,.88,36.91,.88,36.91,6.15,12.6,6.73,26.07,6.73,40.72s-11.13,27.53-11.13,27.53c.59,27.83-5.27,53.02-5.27,53.02,2.64,3.23,8.49,19.92,7.03,27.54-1.47,7.61-19.92,7.03-19.92,7.03,0,0-11.42,10.25-27.54,25.78-16.11,15.52-24.02,14.94-26.95,9.66-2.92-5.27-.29-26.36,1.18-31.93,1.46-5.56,23.43-16.11,28.12-18.74,4.68-2.64,14.94-18.75,12.01-26.37-2.93-7.61-5.27-91.1-5.27-91.1,0,0,.99-14.67,.51-27.95-.21-5.86-.7-11.45-1.69-15.4-3.22-12.89,4.4-27.83,4.4-27.83,0,0,.59-2.71,1.41-8,1.32-8.65,3.24-24.21,4.15-46.19,1.47-35.45,7.33-49.22,9.96-56.83,.61-1.75,1.62-5.47,2.83-10.21"/><path class="cls-2" d="M193,216.33c-.9-3.42-2.26-6.2-2.26-6.2l-28.49-75.96s-22.44,35.1-21,38.27c1.44,3.16-.87,23.31-2.59,27.62-1.73,4.32-18.13,30.5-18.13,30.5l-37.69,55.25s6.67,3.67,.85,13.98c-5.83,10.31-6.11,18.99-6.11,18.99-.75,26.47-4.78,25.71-13.35,34.03s-14.62-7.56-15.13-12.6c-.5-5.04-8.06-14.62-10.33-17.39-2.27-2.78,0-8.57,0-19.41s13.36-16.64,14.87-18.91c1.51-2.26,13.86-10.08,13.86-10.08-.25-8.82,6.56-33.52,7.56-40.07,1.01-6.56,21.68-58.23,21.68-58.23,0,0,5.84-3.68,9.3-14.64,1.82-5.77,2.99-13.57,2.29-23.92-2.01-30,12.36-39.07,14.88-41.84,2.52-2.78-1.52-12.35-1.52-12.35-2.52-35.29,12.61-41.34,19.16-47.89,5.28-5.29,20.08-8.28,29.44-9.64,2.25-.32,4.19-.55,5.6-.7,1.11-.12,2.74-.78,4.73-1.84C191.73,17.4,213.69-.57,213.69-.57l-11.09-26.97s-5.04-4.28-8.82-13.86,.25-19.16,2.77-20.92c2.52-1.77,2.27-15.38,2.27-15.38,6.3-27.72,34.28-32.26,34.28-32.26,41.34,8.07,34.28,43.35,36.3,44.11,2.01,.76,6.55,9.33,6.3,15.88s-13.61,16.13-13.61,16.13c0,0-.76,8.32-1.26,9.83-.51,1.51-5.8,14.12-6.3,19.91-.51,5.8,24.19,13.36,31.76,19.41,2.09,1.67,4.47,2.79,6.84,3.53,0,0,0,0,.02,.01,6.2,1.94,12.23,1.31,12.23,1.31,32.61,20.16,26.68,22.53,32.02,39.43,5.34,16.89-.89,23.41-.89,23.41,0,0,13.93,27.28,16.9,37.06,2.96,9.78-.6,40.61-.6,40.61,0,0,3.56,6.52,13.64,22.23s9.79,39.13,9.79,39.13c0,0-.3,64.03-.01,83.89,.3,19.86-7.7,37.65-7.7,37.65,0,0-14.83,21.05-33.8,19.86-18.97-1.18-15.71-20.16-13.93-26.68,1.78-6.52,16.6-11.86,19.86-12.15,3.26-.3,13.64-21.94,13.64-21.94,0,0-26.39-89.52-27.87-96.93s3.56-25.2,3.56-25.2c0,0-3.56-5.63-6.82-10.67s-12.15-19.27-12.15-19.27c0,0-9.49,34.98-7.41,40.32,2.07,5.33,10.37,47.13,10.37,47.13,2.22,7.26,2.1,28.13,1.8,40.71"/><path class="cls-2" d="M182.73,270.92c4.03-15.86,10.25-43.19,10.93-47.47,.35-2.24-.05-4.82-.65-7.12"/><path class="cls-2" d="M123.21,95.72s11.32-4.99,22.18-12.06"/><path class="cls-2" d="M336.51,83c-6.92-3.12-12.74-6.92-17.63-11.1-24.87-21.21-25.71-52.13-25.73-53.05v-.02h-.02s-61.41,22.56-61.41,22.56l-51.1-18.09"/><line class="cls-2" x1="231.72" y1="41.39" x2="234.94" y2="102.6"/><path class="cls-2" d="M145.4,83.67c.55,.88,19.23,30.86,16.85,50.5"/><path class="cls-2" d="M170.29,25.85c6.22,11.3-.14,24.49-6.22,39.52-2.62,6.46-10.52,12.97-18.68,18.28h0"/><line class="cls-2" x1="145.39" y1="83.66" x2="145.4" y2="83.67"/><path class="cls-2" d="M318.88,71.9s0,0-.01,.03c-16.68,28.11-32.15,40.05-45.16,43.77-23.37,6.71-38.77-13.1-38.77-13.1,0,0-10.54,20.66-34.93,17.25-13.66-1.9-31.67-11.35-54.61-36.18"/><path class="cls-2" d="M311.02,150.59c-4.05-16.92,7.54-77.06,7.85-78.66"/><path class="cls-2" d="M106.04,161.48s8.96,20.09,10.57,19.68c1.62-.4,24.64-8.72,24.64-8.72"/><polyline class="cls-2" points="329.99 180.53 342.01 186.4 352.81 160.67"/><polyline class="cls-2" points="274.26 227.04 284.58 214.34 303.61 190.91"/><path class="cls-2" d="M273.71,115.7s5.86,100.46-8.15,122.06l8.69-10.69"/><path class="cls-2" d="M251.49,248.05c10.48-2.52,14.07-10.29,14.07-10.29"/><path class="cls-2" d="M200.01,119.85s1.94,82.31,20.03,117.91c0,0,2.79,10.73,23.93,11.08,2.83,.05,5.33-.25,7.52-.78"/><polyline class="cls-2" points="220.04 237.76 193.01 216.33 193 216.33"/><path class="cls-2" d="M274.26,227.04s0,0-.01,.03c-.16,1.33-5.56,43.81-11.72,54.29-6.26,10.64-17.53,26.3-18.16,33.81-.62,7.51-6.77,49.77-6.77,49.77"/><path class="cls-2" d="M251.5,248.03s0,.01-.01,.02h0c-.27,1.42-10.21,53.53-7.12,67.12"/><path class="cls-2" d="M315.78,278.9v-.15c0-10.15-30.7-63.55-31.2-64.41h0"/><polyline class="cls-2" points="243.17 403.31 251.5 417.22 278.81 388.42 284.02 396.96"/><path class="cls-2" d="M161.66,435.41s8.82-1.2,16.62-4.61c4.85-2.13,9.31-5.11,11-9.19,1.66-4.04,3.78-7.63,5.77-10.55,3.29-4.8,6.23-7.75,6.23-7.75"/><path class="cls-2" d="M195.05,411.06c-6-17.82-28.67-26.65-29.27-26.88h0"/><path class="cls-2" d="M226.47,367.87c9.02-77.54-19.47-134.72-19.47-134.72-5.2,1.52-23.69,36.68-24.27,37.77-.01,.02-.01,.03-.01,.03"/><path class="cls-2" d="M354.3,302.66s-2.31,22.14-1.49,31.3c.83,9.16,23.42-28.04,23.42-28.04"/><path class="cls-2" d="M64.17,300.51c-8.4-2.86-25.4,22.31-25.4,22.31"/></g></svg>