<?xml version="1.0" encoding="UTF-8"?><svg id="Layer_2" xmlns="http://www.w3.org/2000/svg" viewBox="0 0 400 400"><defs><style>.cls-1{fill:#e30613;}.cls-2{fill:none;stroke:#1d1d1b;stroke-linecap:round;stroke-linejoin:round;stroke-width:13.32px;}</style></defs><g><path class="cls-1" d="M287.66,183.74s-12.68,46.78-9.91,53.91l-25.44,31.33-13.81,16.99-11.64,14.33c18.73-28.87,10.9-163.22,10.9-163.22,17.4-4.98,38.1-20.94,60.39-58.57h0c-.2,1.03-15.95,82.43-10.51,105.23Z"/><path class="cls-1" d="M129.84,271.65c-1.21-4.58-3.03-8.29-3.03-8.29l-38.1-101.58c3.2-26.26-21.79-66.37-22.52-67.55,30.68,33.21,54.76,45.84,73.02,48.38h0s2.58,110.08,26.78,157.69l-36.16-28.66Z"/><path class="cls-1" d="M185.92,119.55s20.59,26.49,51.85,17.53c0,0,7.84,134.35-10.9,163.22,0,0-4.81,10.38-18.8,13.78-2.94,.71-6.28,1.12-10.07,1.05-28.27-.48-32-14.83-32-14.83-24.2-47.61-26.78-157.68-26.78-157.68h0c32.62,4.55,46.71-23.07,46.71-23.07Z"/></g><g><path class="cls-2" d="M1.11,217.88s7.81-4.92,12.43-19.57c2.45-7.73,4.01-18.17,3.08-32.01-2.7-40.1,16.52-52.24,19.89-55.95,3.37-3.7-2.03-16.52-2.03-16.52-3.37-47.19,16.86-55.28,25.62-64.04,7.07-7.07,26.86-11.07,39.37-12.88,3.01-.43,5.59-.74,7.48-.94,1.49-.15,3.67-1.05,6.34-2.47,14.87-7.9,44.23-31.92,44.23-31.92l-14.83-36.07s-6.75-5.73-11.8-18.53c-5.06-12.82,.33-25.62,3.71-27.98,3.37-2.36,3.03-20.56,3.03-20.56,8.43-37.08,45.85-43.15,45.85-43.15,55.28,10.79,45.84,57.98,48.53,58.99,2.7,1.01,8.76,12.47,8.43,21.24-.34,8.76-18.2,21.57-18.2,21.57,0,0-1.01,11.13-1.68,13.15-.68,2.03-7.75,18.88-8.43,26.63-.68,7.75,32.36,17.87,42.47,25.96,2.79,2.23,5.99,3.73,9.16,4.72,0,0,0,0,.02,0,8.29,2.6,16.36,1.77,16.36,1.77,43.61,26.95,35.68,30.13,42.81,52.72,7.13,22.6-1.19,31.32-1.19,31.32,0,0,18.63,36.47,22.6,49.55,3.96,13.09-.79,54.32-.79,54.32,0,0,4.76,8.72,18.24,29.73,13.47,21.01,13.09,52.32,13.09,52.32,0,0-.41,85.63-.02,112.19,.4,26.57-10.3,50.35-10.3,50.35,0,0-19.82,28.14-45.19,26.56-25.37-1.59-21.01-26.95-18.63-35.68,2.38-8.72,22.2-15.85,26.56-16.25s18.24-29.34,18.24-29.34c0,0-35.29-119.72-37.27-129.63-1.98-9.91,4.76-33.69,4.76-33.69,0,0-4.76-7.54-9.12-14.27s-16.26-25.77-16.26-25.77c0,0-12.68,46.78-9.91,53.91,2.77,7.14,13.88,63.03,13.88,63.03,2.98,9.75,2.81,37.83,2.41,54.64-.19,7.79-.43,13.15-.43,13.15,4.76,34.1-8.73,72.95-16.65,94.36-7.93,21.41-25.41,50.38-25.41,50.38,0,7.76-.77,24.07-5.43,28.73s-6.99,39.6-6.99,39.6c6.21,17.08,1.55,71.43,0,84.63s-31.06,82.31-34.94,92.4c-3.88,10.09,4.67,42.7,4.67,42.7,0,0,50.07,22.52,35.31,39.6-14.75,17.08-70.26-21.32-70.26-21.32,0,0-.5-17.74-.5-24.01s-6.66-12.54-9.79-20.77c-3.13-8.22,11.75-22.72,13.71-29.38,1.96-6.66,0-66.6-1.57-79.92s1.96-67.37,1.96-67.37c0,0,13.71-36.83,13.71-42.31s6.27-31.34,5.48-34.08c-.78-2.75-7.05-45.44-7.44-51.33-.4-5.87-14.5,.4-14.89,3.92-.4,3.53-30.17,41.53-33.69,47.41-3.53,5.87,1.17,49.35,1.17,49.35,8.23,16.85,9.02,34.87,9.02,54.46s-14.89,36.82-14.89,36.82c.78,37.22-7.05,70.91-7.05,70.91,3.52,4.3,11.36,26.63,9.4,36.82-1.96,10.19-26.64,9.4-26.64,9.4,0,0-15.27,13.72-36.83,34.47-21.54,20.77-32.12,19.98-36.04,12.93-3.92-7.05-.39-35.26,1.57-42.71,1.96-7.44,31.34-21.54,37.61-25.07,6.27-3.52,19.98-25.06,16.07-35.25-3.92-10.19-7.05-121.83-7.05-121.83,0,0,1.31-19.62,.68-37.38-.28-7.84-.94-15.32-2.25-20.6-4.31-17.24,5.87-37.21,5.87-37.21,0,0,.79-3.62,1.88-10.7,1.77-11.56,4.35-32.38,5.57-61.77,1.95-47.41,9.79-65.82,13.31-76,.81-2.35,2.16-7.31,3.78-13.65,5.39-21.19,13.73-57.79,14.63-63.52,.47-2.99-.07-6.46-.88-9.53-1.21-4.58-3.03-8.29-3.03-8.29l-38.1-101.58s-30.02,46.94-28.09,51.17c1.92,4.23-1.15,31.17-3.47,36.94-2.31,5.77-24.24,40.79-24.24,40.79L-6.28,348.14"/><path class="cls-2" d="M36.5,110.35s15.16-6.67,29.67-16.14c10.92-7.11,21.47-15.81,24.96-24.44,8.14-20.1,16.64-37.74,8.32-52.86"/><path class="cls-2" d="M298.16,78.51c-33.41-28.52-34.38-70.14-34.39-70.97h0s-.02,0-.02,0l-82.13,30.15L113.29,13.51h0"/><path class="cls-2" d="M321.76,93.35c-9.27-4.18-17.05-9.26-23.59-14.84"/><line class="cls-2" x1="181.62" y1="37.7" x2="185.92" y2="119.55"/><path class="cls-2" d="M66.18,94.21s.02,.02,.02,.03c.73,1.17,25.72,41.28,22.52,67.55"/><path class="cls-2" d="M298.17,78.5h0s0,0,0,0c-22.3,37.63-42.99,53.59-60.39,58.57-31.26,8.96-51.85-17.53-51.85-17.53,0,0-14.09,27.62-46.71,23.06-18.26-2.54-42.34-15.17-73.02-48.38"/><path class="cls-2" d="M287.66,183.74c-5.44-22.79,10.31-104.2,10.51-105.23"/><path class="cls-2" d="M13.55,198.31s11.98,26.86,14.14,26.32,32.94-11.67,32.94-11.67"/><polyline class="cls-2" points="313.04 223.78 329.12 231.62 343.56 197.22"/><path class="cls-2" d="M237.77,137.08s7.84,134.35-10.9,163.22l11.64-14.33,13.81-16.99,25.44-31.33"/><path class="cls-2" d="M139.22,142.63s2.58,110.07,26.78,157.68c0,0,3.73,14.36,32,14.83,3.79,.06,7.13-.34,10.07-1.05,14-3.4,18.8-13.78,18.8-13.78"/><line class="cls-2" x1="166" y1="300.3" x2="129.84" y2="271.65"/><path class="cls-2" d="M238.51,285.97s-7.31,58.4-15.68,72.64c-8.38,14.23-23.45,35.17-24.28,45.21-.84,10.05-9.06,66.55-9.06,66.55"/><path class="cls-2" d="M208.08,314.05s0,0,0,.04c-.36,1.89-13.65,71.58-9.52,89.74"/><path class="cls-2" d="M294.04,355.32c.42-13.14-41.72-86.34-41.72-86.34"/><path class="cls-2" d="M174.6,474.3c12.06-103.69-26.04-180.16-26.04-180.16-7.06,2.06-32.48,50.55-32.48,50.55"/></g></svg>