<?xml version="1.0" encoding="UTF-8"?><svg id="Layer_2" xmlns="http://www.w3.org/2000/svg" viewBox="0 0 400 400"><defs><style>.cls-1{fill:#e30613;}.cls-2{fill:none;stroke:#1d1d1b;stroke-linecap:round;stroke-linejoin:round;stroke-width:10.63px;}</style></defs><g><path class="cls-1" d="M291.03,191.05h0c-26.67-22.77-27.44-55.99-27.46-56.65,6.62,2.08,13.06,1.41,13.06,1.41,34.81,21.52,28.48,24.05,34.18,42.09,5.69,18.04-.95,25-.95,25-7.4-3.34-13.61-7.39-18.83-11.85Z"/><path class="cls-1" d="M132.4,141.87c6.64,12.06-.14,26.15-6.64,42.19-2.79,6.89-11.22,13.83-19.93,19.51-11.59,7.56-23.69,12.88-23.69,12.88,2.69-2.95-1.62-13.19-1.62-13.19-2.69-37.67,13.46-44.13,20.45-51.12,5.64-5.64,21.44-8.84,31.42-10.28Z"/></g><g><path class="cls-2" d="M243.9,592.6c4.96,13.64,1.24,57.02,0,67.56s-24.8,65.7-27.89,73.76c-3.1,8.05,3.72,34.08,3.72,34.08,0,0,39.97,17.97,28.19,31.61-11.78,13.64-56.08-17.02-56.08-17.02,0,0-.4-14.16-.4-19.17s-5.31-10.01-7.81-16.58c-2.5-6.56,9.38-18.14,10.94-23.45,1.57-5.31,0-53.16-1.25-63.8-1.25-10.63,1.57-53.78,1.57-53.78,0,0,10.94-29.4,10.94-33.78s5-25.02,4.38-27.2c-.63-2.19-5.63-36.28-5.94-40.97-.32-4.69-11.57,.32-11.88,3.13-.32,2.82-24.08,33.15-26.9,37.84-2.82,4.69,.93,39.4,.93,39.4,6.57,13.45,7.2,27.84,7.2,43.47s-11.88,29.39-11.88,29.39c.63,29.71-5.63,56.61-5.63,56.61,2.81,3.44,9.07,21.26,7.51,29.39-1.57,8.13-21.27,7.51-21.27,7.51,0,0-12.19,10.95-29.4,27.52-17.2,16.58-25.64,15.95-28.77,10.32-3.13-5.63-.31-28.15,1.25-34.09,1.57-5.94,25.02-17.2,30.02-20.01,5-2.81,15.95-20.01,12.83-28.14s-5.63-97.26-5.63-97.26c0,0,1.05-15.66,.55-29.84-.22-6.26-.75-12.23-1.8-16.44-3.44-13.76,4.69-29.71,4.69-29.71,0,0,.63-2.89,1.5-8.54,1.42-9.23,3.47-25.85,4.44-49.31,1.56-37.84,7.81-52.54,10.63-60.67,.65-1.88,1.73-5.84,3.02-10.9,4.31-16.92,10.96-46.13,11.68-50.71,.37-2.39-.06-5.15-.7-7.61-.96-3.65-2.42-6.61-2.42-6.61l-30.41-81.09s-23.96,37.47-22.42,40.85c1.53,3.38-.92,24.88-2.77,29.49-1.84,4.61-19.35,32.56-19.35,32.56l-40.24,58.97s7.12,3.93,.91,14.93c-6.22,11.01-6.52,20.27-6.52,20.27-.81,28.25-5.11,27.45-14.26,36.33-9.15,8.88-15.61-8.07-16.15-13.45-.54-5.38-8.61-15.61-11.03-18.57-2.42-2.96,0-9.14,0-20.72s14.26-17.76,15.87-20.18c1.61-2.42,14.8-10.76,14.8-10.76-.27-9.42,7-35.79,8.07-42.78,1.08-7,23.14-62.16,23.14-62.16,0,0,6.23-3.93,9.92-15.62,1.96-6.17,3.2-14.5,2.46-25.55-2.16-32.01,13.19-41.71,15.87-44.67,2.69-2.95-1.62-13.19-1.62-13.19-2.69-37.67,13.46-44.13,20.45-51.12,5.64-5.64,21.44-8.84,31.42-10.28,2.4-.35,4.46-.59,5.97-.75,1.19-.12,2.93-.84,5.06-1.97,11.87-6.31,35.31-25.48,35.31-25.48l-11.84-28.79s-5.38-4.57-9.42-14.8c-4.04-10.23,.27-20.45,2.96-22.34,2.69-1.88,2.42-16.41,2.42-16.41C169.59,1.74,199.47-3.11,199.47-3.11c44.13,8.61,36.59,46.28,38.74,47.09,2.16,.81,7,9.96,6.73,16.95-.27,7-14.53,17.22-14.53,17.22,0,0-.81,8.89-1.34,10.5-.54,1.62-6.19,15.07-6.73,21.26-.54,6.19,25.83,14.26,33.9,20.72,2.23,1.78,4.78,2.98,7.31,3.77,0,0,0,0,.01,0,6.62,2.08,13.06,1.41,13.06,1.41,34.81,21.52,28.48,24.05,34.18,42.09,5.69,18.04-.95,25-.95,25,0,0,14.87,29.12,18.04,39.56,3.16,10.45-.63,43.36-.63,43.36,0,0,3.8,6.96,14.56,23.73,10.76,16.77,10.45,41.77,10.45,41.77,0,0-.33,68.36-.01,89.56,.32,21.21-8.22,40.2-8.22,40.2,0,0-15.82,22.47-36.08,21.2-20.25-1.27-16.77-21.52-14.87-28.48,1.9-6.96,17.72-12.65,21.2-12.97s14.56-23.42,14.56-23.42c0,0-28.17-95.57-29.75-103.48-1.58-7.91,3.8-26.9,3.8-26.9,0,0-3.8-6.02-7.28-11.4s-12.98-20.57-12.98-20.57c0,0-10.12,37.34-7.91,43.04,2.21,5.7,11.08,50.32,11.08,50.32,2.38,7.79,2.24,30.2,1.93,43.62-.15,6.22-.35,10.5-.35,10.5,3.8,27.22-6.97,58.23-13.29,75.32-6.33,17.09-20.28,40.22-20.28,40.22,0,6.2-.62,19.22-4.34,22.93s-5.58,31.61-5.58,31.61Z"/><path class="cls-2" d="M82.14,216.46s12.1-5.33,23.69-12.88c8.71-5.68,17.14-12.62,19.93-19.51,6.5-16.05,13.29-30.13,6.64-42.19"/><path class="cls-2" d="M291.02,191.05c-26.67-22.77-27.44-55.99-27.46-56.65h0s-.01,0-.01,0l-65.57,24.07-54.55-19.31h0"/><path class="cls-2" d="M309.86,202.89c-7.4-3.34-13.61-7.39-18.83-11.85"/><line class="cls-2" x1="197.98" y1="158.46" x2="201.42" y2="223.81"/><path class="cls-2" d="M105.83,203.58s.01,.01,.01,.02c.58,.93,20.53,32.96,17.98,53.92"/><path class="cls-2" d="M291.03,191.04h0s0,0,0,0c-17.8,30.04-34.32,42.78-48.21,46.75-24.95,7.15-41.39-13.99-41.39-13.99,0,0-11.24,22.05-37.28,18.41-14.58-2.03-33.8-12.11-58.29-38.62"/><path class="cls-2" d="M282.64,275.04c-4.34-18.2,8.23-83.18,8.39-84"/><path class="cls-2" d="M63.82,286.68s9.56,21.44,11.29,21.01,26.3-9.32,26.3-9.32"/><polyline class="cls-2" points="302.9 307.01 315.73 313.27 327.26 285.81"/><path class="cls-2" d="M242.81,237.8s6.25,107.25-8.7,130.3l9.29-11.44,11.02-13.57,20.31-25.01"/><path class="cls-2" d="M164.14,242.23s2.06,87.87,21.38,125.87c0,0,2.98,11.46,25.54,11.84,3.03,.05,5.69-.27,8.04-.84,11.17-2.71,15.01-11,15.01-11"/><line class="cls-2" x1="185.52" y1="368.1" x2="156.65" y2="345.22"/><path class="cls-2" d="M243.4,356.66s-5.84,46.62-12.52,57.99c-6.69,11.36-18.72,28.07-19.38,36.09-.67,8.02-7.23,53.13-7.23,53.13"/><path class="cls-2" d="M219.11,379.07s0,0,0,.03c-.29,1.51-10.9,57.14-7.6,71.64"/><path class="cls-2" d="M287.73,412.02c.34-10.49-33.31-68.92-33.31-68.92"/><path class="cls-2" d="M192.38,506.99c9.63-82.77-20.78-143.81-20.78-143.81-5.64,1.65-25.92,40.35-25.92,40.35"/></g></svg>