<?xml version="1.0" encoding="UTF-8"?><svg id="Layer_2" xmlns="http://www.w3.org/2000/svg" viewBox="0 0 400 400"><defs><style>.cls-1{fill:#e30613;}.cls-2{stroke-width:13.32px;}.cls-2,.cls-3{fill:none;stroke:#1d1d1b;stroke-linecap:round;stroke-linejoin:round;}.cls-3{stroke-width:10.12px;}</style></defs><g><g><path class="cls-1" d="M299.21,263.55s-9.54,33.42-12.62,39.55c-3.06,6.14-11.25,23.53-12.61,24.9,8.42-29.19-56.85-86.09-56.85-86.09,0,0,17.44-63.54,50.85-90.46,3.23,9.94,10.05,20.53,23.27,29.96,0,0-5.12,44.48,7.96,82.13Z"/><path class="cls-1" d="M217.13,241.92s65.27,56.9,56.85,86.09l-64.95,37.45s-56.06-31.1-53.77-39.68c9.61-35.89,61.86-83.86,61.86-83.86Z"/><path class="cls-1" d="M269.07,114.12c.19,.08,.35,.12,.48,.08,0,0-8.03,17.31-1.57,37.26-33.41,26.92-50.85,90.46-50.85,90.46l-18.49-37.82c-18.92-38.71-50.4-49.49-50.4-49.49,3.56-10.68,.92-18.96-2.9-24.73,1.03-.74,42.84-30,123.74-15.75Z"/><path class="cls-1" d="M263.07,107.72s4.19,5.6,6,6.4c-80.9-14.25-122.7,15.01-123.74,15.75-4.32-6.55-10.15-9.88-10.15-9.88,0,0,29.67-28.99,30.35-34.1,0,0,30.29-56.66,37.37-56.66s17.73,5.17,19.24,20.51c0,0,.34,6.13,5.46,13.29,5.12,7.16,35.47,44.67,35.47,44.67Z"/><path class="cls-1" d="M198.64,204.09l18.49,37.82s-52.24,47.97-61.86,83.86c0,0-11.73-57.46-19.34-65.67l-7.63-8.21c4.38-10.91-16.54-41.83-16.54-41.83,0,0,28.89-32.67,36.48-55.47,0,0,31.47,10.79,50.4,49.49Z"/></g><g><path class="cls-3" d="M287.2,589.02c-10.55-13.48-44.56-46.31-48.08-60.97-3.52-14.65-11.73-23.45-11.73-23.45,0,0-4.11,19.35-4.11,27.56s-6.44,76.8-15.24,94.98c0,0-6.44,11.13-2.93,14.65s19.34,34.01,19.34,41.04,7.04,31.08-2.93,52.77c0,0-1.76,41.04-1.17,45.73,.58,4.69,.58,18.18,1.75,24.04s9.38,17.59,8.8,20.51c-.59,2.94,28.47,26.39,3.25,23.45,0,0-53.09-14.07-54.84-19.34-1.76-5.28-5.86-11.73,0-17.59,5.86-5.86,12.9-5.28,12.9-9.38s-1.17-32.83-8.21-51.01c-1.89-4.88-4.37-11.56-6.99-18.75-7.13-19.59-15.29-42.81-15.29-42.81,0,0-5.86-51.59,2.35-70.36,0,0-25.22-58.63-25.22-65.08,0-5.92-5.43-51.87-1.34-75.24,.37-2.09,.81-3.98,1.34-5.67,0,0-11.73-49.83-9.96-72.11,0,0,0-49.25,26.38-76.22,0,0-11.73-57.46-19.34-65.67l-7.63-8.21s0,33.41-17,48.08l-4.69,5.27s11.13,35.18-12.9,113.16c0,0,.27,1.83,.56,4.63,.67,6.54,1.5,18.34-.56,24.09-2.94,8.21,1.75,28.14-16.42,36.35,0,0-29.91,1.76-31.08-13.48-1.17-15.24-4.69-32.25,14.07-56.28l2.11-3.48,2.67-4.4s-8.74-44.55-4.79-74.15c3.95-29.62,4.79-39.76,4.79-39.76,0,0,8.17-7.05,9.02-5.92,0,0-7.05-44.55-3.39-56.68,3.67-12.12,11.63-23.06,11.63-23.06,0,0-4.1-36.49,2.73-46.72,6.81-10.23,22.16-33.08,50.12-39.55,0,0,29.67-28.99,30.35-34.1,0,0-21.14-31.37-21.14-38.53s1.71-24.55-2.04-29.33-7.16-24.55-7.16-24.55c0,0,6.11-23.83,14.33-30.68,18.41-15.35,30.49-20.75,39.89-19.43,12.28,1.71,32.05,9.54,35.8,33.41,3.76,23.87,3.41,59.34-3.06,72.98,0,0,.34,6.13,5.46,13.29,5.12,7.16,35.47,44.67,35.47,44.67,0,0,4.19,5.6,6,6.4,.19,.08,.35,.12,.48,.08,1.36-.35,24.21-4.1,30.68,2.04s26.26,36.83,27.28,39.22c1.02,2.38,6.48,12.96,4.77,24.89l1.66,3.37,11.64,23.57s18.06,58.99,17.38,67.86c-.37,4.91,.19,9.5,.77,12.62,.46,2.52,.94,4.09,.94,4.09l22.43,26.26s16.45,19.77,23.6,57.97c7.16,38.2,14.66,55.58,14.66,55.58,0,0,18.42-2.38,27.28,5.12,8.87,7.5,27.28,15.35,27.62,31.37,0,0-10.56-2.38-10.91,1.71-.34,4.1,10.91,50.47,10.91,50.47,0,0,4.5,11.93-13.61,7.5-18.1-4.43-33.11-4.77-41.63-26.25-8.52-21.49-12.27-48.09-12.27-48.09,0,0-8.87-1.36-10.23-4.09-1.37-2.73-50.47-72.29-50.47-72.29,0,0-18.08-26.6-17.74-33.41l-4.09-48.42-31.03-31.72s-9.54,33.42-12.62,39.55c-3.06,6.14-11.25,23.53-12.61,24.9-1.37,1.36,18.06,21.14,21.48,45.01,0,0,10.91,42.28,10.23,61.03,0,0,10.77,15.44,12.12,21.7,1.34,6.25,23.21,64.3,16.51,145.1l-2.23,11.61s12.5,18.31,12.06,30.81c0,0,4.46,45.99-.45,70.54-.93,4.64-1.72,10.17-2.38,16.08-2.83,25.31-3.42,57.6-3.42,57.6,0,0-3.12,17.86,26.8,34.82,0,0,75.87,21.08,48.54,23.05h-69.43s-34.92,1.64-35.5-15.36c-.59-17.01,0-83.85-7.63-100.26-.99-2.12-2-4.5-3.02-7.06-6.86-17.16-13.98-41.6-13.98-41.6,0,0-1.76-18.76,2.93-33.42,4.69-14.64,11.13-45.1,.62-58.61"/><path class="cls-3" d="M222.15,49.75c-1.51-15.35-12.17-20.51-19.24-20.51s-37.37,56.66-37.37,56.66"/><path class="cls-3" d="M82.34,206.26c.6,6.8,8.15,23.57,12.7,22.8,4.56-.75,16.72-18.99,16.72-18.99,0,0,28.89-32.67,36.48-55.47,3.56-10.68,.92-18.96-2.9-24.73-4.32-6.55-10.15-9.88-10.15-9.88"/><path class="cls-3" d="M128.3,251.9c4.38-10.91-16.54-41.83-16.54-41.83"/><path class="cls-3" d="M74.1,286s4.69,28.34,10.16,29.25c5.47,.92,22.36-10,22.36-10"/><path class="cls-3" d="M333.95,183.72c-4.1,2.02-8.02,3.3-11.7,4.04-18.46,3.69-31-6.34-31-6.34-13.21-9.44-20.04-20.03-23.27-29.96-6.47-19.95,1.57-37.26,1.57-37.26-.16-.02-.31-.06-.48-.08-80.9-14.25-122.7,15.01-123.74,15.75-.01,.01-.02,.01-.02,.01"/><path class="cls-3" d="M341.88,276.77s-3.85-21.01-4.71-30.87c-.86-9.87-12.25-57.33-12.25-57.33"/><path class="cls-3" d="M330.24,295.27c15.63,.06,11.73-18.1,11.64-18.48"/><path class="cls-3" d="M341.88,276.77h.01c.52,.34,17.19,10.84,21.85,10.99"/><path class="cls-3" d="M291.25,181.42s-5.12,44.48,7.96,82.13"/><path class="cls-3" d="M148.24,154.6s31.47,10.79,50.4,49.49l18.49,37.82s17.44-63.54,50.85-90.46l.02-.02"/><path class="cls-3" d="M209.04,420.45v-55l64.95-37.45c8.42-29.19-56.85-86.09-56.85-86.09,0,0-52.24,47.97-61.86,83.86-2.3,8.58,53.77,39.68,53.77,39.68"/></g></g><path class="cls-2" d="M688.92,705.28c6.21,17.08,1.55,71.43,0,84.63s-31.06,82.31-34.94,92.4c-3.88,10.09,4.67,42.7,4.67,42.7,0,0,50.07,22.52,35.31,39.6-14.75,17.08-70.26-21.32-70.26-21.32,0,0-.5-17.74-.5-24.01s-6.66-12.54-9.79-20.77c-3.13-8.22,11.75-22.72,13.71-29.38,1.96-6.66,0-66.6-1.57-79.92s1.96-67.37,1.96-67.37c0,0,13.71-36.83,13.71-42.31s6.27-31.34,5.48-34.08c-.78-2.75-7.05-45.44-7.44-51.33-.4-5.87-14.5,.4-14.89,3.92-.4,3.53-30.17,41.53-33.69,47.41-3.53,5.87,1.17,49.35,1.17,49.35,8.23,16.85,9.02,34.87,9.02,54.46s-14.89,36.82-14.89,36.82c.78,37.22-7.05,70.91-7.05,70.91,3.52,4.3,11.36,26.63,9.4,36.82-1.96,10.19-26.64,9.4-26.64,9.4,0,0-15.27,13.72-36.83,34.47-21.54,20.77-32.12,19.98-36.04,12.93s-.39-35.26,1.57-42.71c1.96-7.44,31.34-21.54,37.61-25.07,6.27-3.52,19.98-25.06,16.07-35.25-3.92-10.19-7.05-121.83-7.05-121.83,0,0,1.31-19.62,.68-37.38-.28-7.84-.94-15.32-2.25-20.6-4.31-17.24,5.87-37.21,5.87-37.21,0,0,.79-3.62,1.88-10.7,1.77-11.56,4.35-32.38,5.57-61.77,1.95-47.41,9.79-65.82,13.31-76,.81-2.35,2.16-7.31,3.78-13.65,5.39-21.19,13.73-57.79,14.63-63.52,.47-2.99-.07-6.46-.88-9.53-1.21-4.58-3.03-8.29-3.03-8.29l-38.1-101.58s-30.02,46.94-28.09,51.17c1.92,4.23-1.15,31.17-3.47,36.94-2.31,5.77-24.24,40.79-24.24,40.79l-50.41,73.88s8.92,4.92,1.13,18.71c-7.79,13.79-8.17,25.4-8.17,25.4-1.01,35.39-6.4,34.38-17.86,45.51-11.46,11.12-19.55-10.11-20.23-16.85-.68-6.75-10.79-19.55-13.82-23.26-3.04-3.71,0-11.46,0-25.96s17.86-22.24,19.89-25.28c2.02-3.04,18.53-13.48,18.53-13.48-.33-11.8,8.76-44.83,10.11-53.59s28.99-77.87,28.99-77.87c0,0,7.81-4.92,12.43-19.57,2.45-7.73,4.01-18.17,3.08-32.01-2.7-40.1,16.52-52.24,19.89-55.95,3.37-3.7-2.03-16.52-2.03-16.52-3.37-47.19,16.86-55.28,25.62-64.04,7.07-7.07,26.86-11.07,39.37-12.88,3.01-.43,5.59-.74,7.48-.94,1.49-.15,3.67-1.05,6.34-2.47,14.87-7.9,44.23-31.92,44.23-31.92l-14.83-36.07s-6.75-5.73-11.8-18.53c-5.06-12.82,.33-25.62,3.71-27.98,3.37-2.36,3.03-20.56,3.03-20.56,8.43-37.08,45.85-43.15,45.85-43.15,55.28,10.79,45.84,57.98,48.53,58.99,2.7,1.01,8.76,12.47,8.43,21.24-.34,8.76-18.2,21.57-18.2,21.57,0,0-1.01,11.13-1.68,13.15-.68,2.03-7.75,18.88-8.43,26.63-.68,7.75,32.36,17.87,42.47,25.96,2.79,2.23,5.99,3.73,9.16,4.72,0,0,0,0,.02,0,8.29,2.6,16.36,1.77,16.36,1.77,43.61,26.95,35.68,30.13,42.81,52.72,7.13,22.6-1.19,31.32-1.19,31.32,0,0,18.63,36.47,22.6,49.55,3.96,13.09-.79,54.32-.79,54.32,0,0,4.76,8.72,18.24,29.73,13.47,21.01,13.09,52.32,13.09,52.32,0,0-.41,85.63-.02,112.19,.4,26.57-10.3,50.35-10.3,50.35,0,0-19.82,28.14-45.19,26.56s-21.01-26.95-18.63-35.68c2.38-8.72,22.2-15.85,26.56-16.25s18.24-29.34,18.24-29.34c0,0-35.29-119.72-37.27-129.63-1.98-9.91,4.76-33.69,4.76-33.69,0,0-4.76-7.54-9.12-14.27s-16.26-25.77-16.26-25.77c0,0-12.68,46.78-9.91,53.91,2.77,7.14,13.88,63.03,13.88,63.03,2.98,9.75,2.81,37.83,2.41,54.64-.19,7.79-.43,13.15-.43,13.15,4.76,34.1-8.73,72.95-16.65,94.36-7.93,21.41-25.41,50.38-25.41,50.38,0,7.76-.77,24.07-5.43,28.73s-6.99,39.6-6.99,39.6Z"/></svg>