<?xml version="1.0" encoding="UTF-8"?><svg id="Layer_2" xmlns="http://www.w3.org/2000/svg" viewBox="0 0 400 400"><defs><style>.cls-1,.cls-2{fill:#e30613;}.cls-1,.cls-3{stroke-width:5px;}.cls-1,.cls-3,.cls-4{stroke:#1d1d1b;stroke-linecap:round;stroke-linejoin:round;}.cls-3,.cls-4{fill:none;}.cls-4{stroke-width:3.69px;}</style></defs><g><g><path class="cls-2" d="M377.34,238.25s1.64,4.35-4.96,2.74c-6.6-1.62-12.08-1.74-15.19-9.57-3.11-7.84-4.47-17.53-4.47-17.53,0,0-3.23-.5-3.73-1.49-.49-.99-18.4-26.36-18.4-26.36,0,0-6.59-9.7-6.47-12.19l-1.49-17.66c5.76,.02,4.24-6.75,4.24-6.75,0,0,6.25,3.95,7.97,4.01,.17,.92,.34,1.49,.34,1.49l8.18,9.58s6,7.21,8.61,21.14c2.61,13.93,5.35,20.27,5.35,20.27,0,0,6.71-.87,9.94,1.87,3.23,2.73,9.95,5.59,10.07,11.44,0,0-3.86-.87-3.98,.62-.12,1.49,3.98,18.4,3.98,18.4Z"/><path class="cls-2" d="M335.19,348.37s27.67,7.69,17.7,8.4h-25.31s-12.74,.59-12.95-5.6c-.21-6.2,0-30.57-2.78-36.56-.36-.77-.73-1.64-1.1-2.57,0,0,.81-7.73,4.32-5.85s11.6,8.48,11.6,8.48c-1.03,9.23-1.25,21-1.25,21,0,0-1.14,6.51,9.77,12.7Z"/><path class="cls-2" d="M328.23,124.1s6.59,21.51,6.34,24.74c-.14,1.79,.07,3.46,.28,4.6-1.72-.05-7.97-4.01-7.97-4.01,0,0-1.41-7.66-1.72-11.26-.31-3.6-4.46-20.9-4.46-20.9l-1.43-.21c1.47-.25,3.05-.74,4.72-1.56l4.24,8.59Z"/><path class="cls-2" d="M323.31,271.85s4.56,6.68,4.4,11.23c0,0,1.63,16.77-.16,25.72-.34,1.7-.62,3.71-.87,5.87,0,0-8.08-6.6-11.6-8.48s-4.32,5.85-4.32,5.85c-2.51-6.26-5.1-15.18-5.1-15.18,0,0-.64-6.84,1.07-12.19,1.71-5.34,4.06-16.45,.22-21.37,.27,.25,8.15,7.61,13.39,8.8,1.16,.27,2.19,.23,2.97-.25Z"/><path class="cls-2" d="M326.87,149.44s1.52,6.77-4.24,6.75l-11.32-11.57c-4.77-13.73-2.91-29.95-2.91-29.95,0,0,4.37,3.49,10.86,2.4l1.43,.21s4.15,17.3,4.46,20.9c.31,3.59,1.72,11.26,1.72,11.26Z"/><path class="cls-2" d="M318.1,214.7c.49,2.28,8.46,23.44,6.02,52.91l-.82,4.23c-.79,.48-1.82,.52-2.97,.25,0,0,3.69-29.31-12.58-53.08,0,0,6.19-7.56,5.93-12.23,0,0,3.93,5.63,4.42,7.91Z"/><path class="cls-2" d="M299.93,103.74c-2.36-7.27,.57-13.58,.57-13.58,.5-.13,8.83-1.49,11.19,.74,2.37,2.24,9.58,13.43,9.95,14.3s2.36,4.73,1.74,9.08l.6,1.23c-1.66,.82-3.25,1.31-4.72,1.56-6.48,1.1-10.86-2.4-10.86-2.4-4.82-3.44-7.31-7.31-8.48-10.93Z"/><path class="cls-2" d="M307.75,219.02c16.27,23.77,12.58,53.08,12.58,53.08-5.24-1.19-13.13-8.54-13.39-8.8h0c-3.85-4.92-16.25-16.89-17.53-22.24-1.29-5.34-4.28-8.55-4.28-8.55-1.96-5.1-3.26-24.52-2.01-22.85l.09,.16c1.4,2.8,24.54,9.19,24.54,9.19Z"/><path class="cls-2" d="M313.68,206.79c.26,4.66-5.93,12.23-5.93,12.23,0,0-23.14-6.39-24.54-9.19-.03-.07-.06-.12-.09-.16l-4.68-7.84v-20.06l23.68-13.66c-.5,.5,6.59,7.71,7.84,16.41,0,0,3.97,15.42,3.73,22.26Z"/><path class="cls-2" d="M311.32,144.61s-3.48,12.19-4.6,14.42c-1.12,2.24-4.1,8.58-4.6,9.08,3.07-10.64-20.73-31.39-20.73-31.39,0,0,6.36-23.18,18.54-32.99,1.17,3.62,3.66,7.49,8.48,10.93,0,0-1.87,16.22,2.91,29.95Z"/><path class="cls-2" d="M281.39,136.73s23.8,20.74,20.73,31.39l-23.68,13.66s-20.44-11.34-19.61-14.47c3.5-13.08,22.56-30.58,22.56-30.58Z"/><path class="cls-2" d="M300.32,90.13c.07,.03,.13,.04,.17,.03,0,0-2.93,6.31-.57,13.58-12.18,9.81-18.54,32.99-18.54,32.99l-6.74-13.8c-6.9-14.12-18.38-18.05-18.38-18.05,1.3-3.9,.33-6.92-1.06-9.02,.46-.32,15.69-10.92,45.12-5.74Z"/><path class="cls-2" d="M298.14,87.79s1.53,2.04,2.19,2.34c-29.43-5.18-44.66,5.42-45.12,5.74-1.58-2.38-3.7-3.59-3.7-3.59,0,0,10.82-10.57,11.07-12.43,0,0,11.04-20.66,13.62-20.66s6.46,1.89,7.02,7.48c0,0,.12,2.24,1.99,4.85,1.86,2.61,12.93,16.29,12.93,16.29Z"/><path class="cls-2" d="M286.41,349.67c-.21,1.07,10.38,9.62,1.19,8.55,0,0-19.36-5.13-20-7.05s-2.14-4.28,0-6.42,4.7-1.93,4.7-3.42-.43-11.97-2.99-18.6c-.69-1.78-1.59-4.22-2.55-6.84,0,0,9.46-14.61,16.23,.85,0,0-.64,14.96-.43,16.68,.22,1.71,.22,6.63,.64,8.77s3.42,6.42,3.21,7.48Z"/><path class="cls-2" d="M285.13,232.51s-1.5,7.05-1.5,10.05-2.35,28.01-5.56,34.63c0,0-2.35,4.06-1.07,5.34-6.89,7.53-14.96-7.91-14.96-7.91,0,0-9.19-21.38-9.19-23.73,0-2.16-1.98-18.92-.49-27.44,0,0,6.86-7.6,15-11.67,8.13-4.06,11.08-9.96,11.08-9.96l4.68,7.84c-1.25-1.67,.05,17.75,2.01,22.85Z"/><path class="cls-2" d="M284.06,297.51c0,2.56,2.56,11.33-1.07,19.24-6.77-15.46-16.23-.85-16.23-.85-2.6-7.14-5.58-15.61-5.58-15.61,0,0-2.14-18.81,.86-25.66,0,0,8.07,15.44,14.96,7.91,1.29,1.29,7.06,12.4,7.06,14.97Z"/><path class="cls-2" d="M274.64,122.93l6.74,13.8s-19.05,17.49-22.56,30.58c0,0-4.28-20.95-7.05-23.94l-2.78-2.99c1.6-3.98-6.03-15.25-6.03-15.25,0,0,10.53-11.91,13.3-20.23,0,0,11.48,3.93,18.38,18.05Z"/><path class="cls-2" d="M278.44,181.77v20.06s-2.95,5.9-11.08,9.96c-8.14,4.07-15,11.67-15,11.67,.13-.76,.29-1.45,.49-2.06,0,0-4.28-18.18-3.63-26.3,0,0,0-17.96,9.62-27.79-.84,3.13,19.61,14.47,19.61,14.47Z"/><path class="cls-2" d="M255.21,95.86c1.39,2.1,2.36,5.12,1.06,9.02-2.77,8.32-13.3,20.23-13.3,20.23,0,0-4.44,6.65-6.1,6.92s-4.41-5.84-4.63-8.32c0,0-1.49-13.31,.99-17.03,2.49-3.73,8.08-12.06,18.28-14.42,0,0,2.12,1.21,3.7,3.59Z"/><path class="cls-2" d="M242.96,125.12s7.63,11.27,6.03,15.25c0,0,0,12.19-6.2,17.53l-1.71,1.93s-6.16,3.97-8.15,3.64-3.7-10.67-3.7-10.67c0,0-2.57-16.25-1.23-20.67s4.24-8.41,4.24-8.41c.22,2.48,2.97,8.59,4.63,8.32s6.1-6.92,6.1-6.92Z"/><path class="cls-2" d="M241.08,159.82s4.06,12.83-4.7,41.26c0,0,.09,.67,.2,1.69-8.44,6.02-11.62-4.67-11.62-4.67l.97-1.6s-3.19-16.25-1.75-27.04c1.44-10.8,1.75-14.5,1.75-14.5,0,0,2.98-2.57,3.29-2.16,0,0,1.71,10.34,3.7,10.67s8.15-3.64,8.15-3.64Z"/><path class="cls-2" d="M236.58,202.77c.25,2.39,.54,6.69-.2,8.79-1.07,2.99,.64,10.26-5.98,13.26,0,0-10.9,.64-11.33-4.92-.43-5.56-1.71-11.76,5.13-20.52l.77-1.27s3.17,10.7,11.62,4.67Z"/></g><g><path class="cls-3" d="M306.93,263.3c-3.85-4.92-16.25-16.89-17.53-22.23-1.29-5.34-4.28-8.55-4.28-8.55,0,0-1.5,7.05-1.5,10.05s-2.35,28.01-5.56,34.63c0,0-2.35,4.06-1.07,5.34s7.06,12.4,7.06,14.97,2.56,11.33-1.07,19.24c0,0-.64,14.96-.43,16.68,.22,1.71,.22,6.63,.64,8.77s3.42,6.42,3.21,7.48,10.38,9.62,1.19,8.55c0,0-19.36-5.13-20-7.05s-2.14-4.28,0-6.42,4.7-1.93,4.7-3.42-.43-11.97-2.99-18.6c-.69-1.78-1.59-4.22-2.55-6.84-2.6-7.14-5.58-15.61-5.58-15.61,0,0-2.14-18.81,.86-25.66,0,0-9.19-21.38-9.19-23.73,0-2.16-1.98-18.92-.49-27.44,.13-.76,.29-1.45,.49-2.06,0,0-4.28-18.18-3.63-26.3,0,0,0-17.96,9.62-27.79,0,0-4.28-20.95-7.05-23.94l-2.78-2.99s0,12.19-6.2,17.53l-1.71,1.93s4.06,12.83-4.7,41.26c0,0,.09,.67,.2,1.69,.25,2.39,.54,6.69-.2,8.79-1.07,2.99,.64,10.26-5.98,13.26,0,0-10.9,.64-11.33-4.92-.43-5.56-1.71-11.76,5.13-20.52l.77-1.27,.97-1.6s-3.19-16.25-1.75-27.04c1.44-10.8,1.75-14.5,1.75-14.5,0,0,2.98-2.57,3.29-2.16,0,0-2.57-16.25-1.23-20.67s4.24-8.41,4.24-8.41c0,0-1.49-13.31,.99-17.03,2.49-3.73,8.08-12.06,18.28-14.42,0,0,10.82-10.57,11.07-12.43,0,0-7.71-11.44-7.71-14.05s.62-8.95-.75-10.69c-1.37-1.74-2.61-8.95-2.61-8.95,0,0,2.22-8.69,5.22-11.19,6.71-5.59,11.12-7.56,14.55-7.09,4.47,.62,11.69,3.48,13.06,12.19,1.37,8.7,1.24,21.64-1.12,26.61,0,0,.12,2.24,1.99,4.85,1.86,2.61,12.93,16.29,12.93,16.29,0,0,1.53,2.04,2.19,2.34,.07,.03,.13,.04,.17,.03,.5-.13,8.83-1.49,11.19,.74,2.37,2.24,9.58,13.43,9.95,14.3s2.36,4.73,1.74,9.08l.6,1.23,4.24,8.59s6.59,21.51,6.34,24.74c-.14,1.79,.07,3.46,.28,4.6,.17,.92,.34,1.49,.34,1.49l8.18,9.58s6,7.21,8.61,21.14c2.61,13.93,5.35,20.27,5.35,20.27,0,0,6.71-.87,9.94,1.87,3.23,2.73,9.95,5.59,10.07,11.44,0,0-3.86-.87-3.98,.62-.12,1.49,3.98,18.4,3.98,18.4,0,0,1.64,4.35-4.96,2.74-6.6-1.62-12.08-1.74-15.19-9.57-3.11-7.84-4.47-17.53-4.47-17.53,0,0-3.23-.5-3.73-1.49-.49-.99-18.4-26.36-18.4-26.36,0,0-6.59-9.7-6.47-12.19l-1.49-17.66-11.32-11.57s-3.48,12.19-4.6,14.42c-1.12,2.24-4.1,8.58-4.6,9.08s6.59,7.71,7.84,16.41c0,0,3.97,15.42,3.73,22.26,0,0,3.93,5.63,4.42,7.91,.49,2.28,8.46,23.44,6.02,52.91l-.82,4.23s4.56,6.68,4.4,11.23c0,0,1.63,16.77-.16,25.72-.34,1.7-.62,3.71-.87,5.87-1.03,9.23-1.25,21-1.25,21,0,0-1.14,6.51,9.77,12.7,0,0,27.67,7.69,17.7,8.4h-25.31s-12.74,.59-12.95-5.6c-.21-6.2,0-30.57-2.78-36.56-.36-.77-.73-1.64-1.1-2.57-2.51-6.26-5.1-15.18-5.1-15.18,0,0-.64-6.84,1.07-12.19,1.71-5.34,4.06-16.45,.22-21.37"/><path class="cls-3" d="M282.99,316.75c-6.77-15.46-16.23-.85-16.23-.85"/><path class="cls-3" d="M326.67,314.67s-8.08-6.6-11.6-8.48-4.32,5.85-4.32,5.85"/><path class="cls-3" d="M262.04,274.63s8.07,15.44,14.96,7.91"/><path class="cls-3" d="M306.93,263.3h0c.27,.26,8.15,7.61,13.39,8.8,1.16,.27,2.19,.23,2.97-.25"/><path class="cls-3" d="M313.68,206.79c.26,4.66-5.93,12.23-5.93,12.23,16.27,23.77,12.58,53.08,12.58,53.08"/><path class="cls-3" d="M307.75,219.02s-23.14-6.39-24.54-9.19c-.03-.07-.06-.12-.09-.16-1.25-1.67,.05,17.75,2.01,22.85"/><path class="cls-3" d="M283.21,209.83l-.09-.16-4.68-7.84s-2.95,5.9-11.08,9.96c-8.14,4.07-15,11.67-15,11.67"/><path class="cls-3" d="M283.22,66.65c-.55-5.59-4.44-7.48-7.02-7.48s-13.62,20.66-13.62,20.66"/><path class="cls-3" d="M232.23,123.73c.22,2.48,2.97,8.59,4.63,8.32s6.1-6.92,6.1-6.92c0,0,10.53-11.91,13.3-20.23,1.3-3.9,.33-6.92-1.06-9.02-1.58-2.38-3.7-3.59-3.7-3.59"/><path class="cls-3" d="M248.99,140.37c1.6-3.98-6.03-15.25-6.03-15.25"/><path class="cls-3" d="M229.23,152.8s1.71,10.34,3.7,10.67,8.15-3.64,8.15-3.64"/><path class="cls-3" d="M224.97,198.1s3.17,10.7,11.62,4.67"/><path class="cls-3" d="M323.98,115.5c-1.66,.82-3.25,1.31-4.72,1.56-6.48,1.1-10.86-2.4-10.86-2.4-4.82-3.44-7.31-7.31-8.48-10.93-2.36-7.27,.57-13.58,.57-13.58-.06,0-.11-.02-.17-.03-29.43-5.18-44.66,5.42-45.12,5.74h0"/><path class="cls-3" d="M322.63,156.18c5.76,.02,4.24-6.75,4.24-6.75,0,0-1.41-7.66-1.72-11.26-.31-3.6-4.46-20.9-4.46-20.9"/><path class="cls-3" d="M326.87,149.44s6.25,3.95,7.97,4.01"/><path class="cls-3" d="M308.41,114.67s-1.87,16.22,2.91,29.95"/><path class="cls-3" d="M256.26,104.89s11.48,3.93,18.38,18.05l6.74,13.8s6.36-23.18,18.54-32.99h0"/><path class="cls-3" d="M278.44,201.83v-20.06l23.68-13.66c3.07-10.64-20.73-31.39-20.73-31.39,0,0-19.05,17.49-22.56,30.58-.84,3.13,19.61,14.47,19.61,14.47"/></g></g><g><g><path class="cls-2" d="M161.92,141.02c4.92,7.28,11.34,18.63,10.37,27.16-.42,3.06,1.69,48.19-3.41,53.79-3.23,6.93-25.11,17.07-21.12-3.02,.79-2.89,7.35-5.25,8.79-5.38s6.04-9.71,6.04-9.71c0,0-11.68-39.62-12.33-42.9-.66-3.28,1.58-11.15,1.58-11.15l5.32,2.6,4.78-11.39Z"/><path class="cls-2" d="M154.7,106.64c6.92,12.93,9.6,19.01,7.22,34.38l-4.78,11.39-5.32-2.6c-.88-1.36-7.96-12.5-8.4-13.25-1.8-7.54,3.41-34.49,3.48-34.83,2.16,1.85,4.74,3.53,7.81,4.91Z"/><path class="cls-2" d="M146.9,101.73h0c-11.06-9.44-11.38-23.21-11.38-23.49,2.75,.86,5.42,.58,5.42,.58,14.43,8.92,11.81,9.97,14.17,17.45,2.36,7.48-.39,10.37-.39,10.37-3.07-1.38-5.64-3.06-7.81-4.91Z"/><path class="cls-2" d="M146.89,101.73h0c-.07,.34-5.28,27.28-3.48,34.83,0,0-4.2,15.48-3.28,17.84l-8.42,10.37-4.57,5.62-3.85,4.74c6.2-9.56,3.61-54.02,3.61-54.02,5.76-1.65,12.61-6.93,19.99-19.38Z"/><path class="cls-2" d="M145.53,193.34h0c-.06,2.58-.14,4.35-.14,4.35,2.34,16.52-8.03,38.56-13.92,47.9l-2.3-3.78-12.09,12.75-3.69-6.16c-.26-.91-2.33-15.04-2.46-16.99,0,0,2.72-18.7,3-22.03,.27-3.32,5.26-10.25,8.04-14.96,2.77-4.71,5.19-24.04,5.19-24.04l4.57-5.62s13.95,24.23,13.81,28.58Z"/><path class="cls-2" d="M135.51,78.24c0,.27,.32,14.05,11.38,23.49-7.38,12.45-14.23,17.73-19.99,19.38-10.35,2.97-17.16-5.8-17.16-5.8l-1.42-27.09,27.18-9.98s0,0,0,0Z"/><path class="cls-2" d="M129.16,241.82l2.3,3.78c0,2.57-.26,7.97-1.8,9.51s-2.31,13.11-2.31,13.11c0,0-11.42-.12-11.11-3.13,.69-6.07,.83-10.51,.83-10.51l12.09-12.75Z"/><path class="cls-2" d="M117.34,340.93s16.57,7.45,11.69,13.11c-4.88,5.65-23.25-7.06-23.25-7.06,0,0-.16-5.87-.16-7.95-4.3-10.28-4.81-6.38,1.3-16.6,.46-5.23,0-16.22-.28-26.7,5.87-6.14,8.49-20.63,9.62-30.66-.31,3.02,11.11,3.13,11.11,3.13,2.06,5.65,.51,23.64,0,28.01s-10.28,27.24-11.56,30.58c-1.28,3.34,1.54,14.13,1.54,14.13Z"/><path class="cls-2" d="M123.3,175.13l3.85-4.74s-2.42,19.33-5.19,24.04c-2.77,4.71-7.76,11.64-8.04,14.96-1.37-6.01,3.03-29.08,3.15-29.7,4.63-1.12,6.22-4.56,6.22-4.56Z"/><path class="cls-2" d="M117.08,179.69c-.97,.24-2.08,.37-3.33,.35-9.36-.16-10.59-4.91-10.59-4.91-8.01-15.76-8.86-52.18-8.86-52.18h0c10.8,1.51,15.46-7.64,15.46-7.64,0,0,6.81,8.77,17.16,5.8,0,0,2.59,44.46-3.61,54.02,0,0-1.59,3.44-6.22,4.56Z"/><path class="cls-2" d="M113.39,248.41l3.69,6.16s-.15,4.44-.83,10.51c-1.13,10.04-3.74,24.52-9.62,30.66-.24-9.14-.35-17.88,.41-22.05,2.19-4.58,6.18-19.67,6.35-25.28Z"/><path class="cls-2" d="M117.08,179.69c-.12,.63-4.52,23.69-3.15,29.7-.28,3.33-3,22.03-3,22.03-.13-1.94-4.8,.13-4.93,1.3,3.99-34.32-8.62-59.62-8.62-59.62-2.34,.68-10.75,16.73-10.75,16.73,1.79-7.01,4.54-19.13,4.84-21.02,.08-.57-.11-1.65-.49-3.1l.2-.05,11.97,9.48s1.23,4.75,10.59,4.91c1.25,.02,2.36-.11,3.33-.35Z"/><path class="cls-2" d="M108.32,88.22l1.42,27.09s-4.66,9.14-15.46,7.63c-6.04-.84-14.01-5.02-24.17-16.01,0,0,0,0,0,0,3.61-2.35,7.11-5.23,8.26-8.09,2.69-6.63,5.49-12.46,2.78-17.45,.81-.13,1.63-.24,2.45-.36,.49-.05,1.22-.35,2.1-.81h0l22.61,8.01Z"/><path class="cls-2" d="M97.38,173.09s12.61,25.31,8.62,59.62c-.13,1.17-9.99,13.74-11.15,15.69-1.06,1.22-1.91,2.39-2.64,3.51l-.11-.07c-2.69-7.99-12.96-11.9-12.96-11.9,.59-3.83,1.44-10.72,1.84-20.44,.65-15.69,3.24-21.78,4.41-25.15,.27-.78,.72-2.42,1.25-4.52,0,0,8.41-16.05,10.75-16.73Z"/><path class="cls-2" d="M103.15,175.13l-11.97-9.48-.2,.05c-2.38-9.05-12.4-32.48-13.41-36.41,1.06-8.69-7.21-21.97-7.45-22.35,10.15,10.99,18.12,15.17,24.17,16.01h0s.86,36.43,8.86,52.19Z"/><path class="cls-2" d="M94.85,248.41c-3.05,15.6,10.18,33.76-1.56,46.54-7.32-9.14-8.54-32.55-8.62-34.28,3.88-1.96,5.1-5.06,7.53-8.76,.74-1.12,1.58-2.29,2.64-3.51Z"/><path class="cls-2" d="M93.29,294.95c.26,12.32-2.33,23.47-2.33,23.47,3.64,7.61,6.86,16.04-5.7,15.3-5.86,3.55-30.46,36.3-23.59,1.56,4.8-6.81,18.96-7.29,17.76-19.97-2.76-17.29-1.41-35.8-2.33-52.68h.22c3.25-.39,5.59-1.05,7.36-1.95,.08,1.73,1.3,25.14,8.62,34.28Z"/><path class="cls-2" d="M84.67,260.67c-1.77,.9-4.1,1.56-7.36,1.94h-.22c-.13-2.3-.3-4.58-.52-6.82-1.43-5.7,1.94-12.32,1.94-12.32,0,0,.26-1.2,.62-3.54,0,0,10.27,3.9,12.96,11.9l.11,.07c-2.44,3.7-3.65,6.8-7.53,8.76Z"/><path class="cls-2" d="M81.16,81.39c2.71,4.99-.09,10.81-2.78,17.45-1.16,2.86-4.65,5.73-8.26,8.09-4.8,3.13-9.82,5.34-9.82,5.34l-.22-.12c.65-1.31,.7-2.86-.44-5.34-.92-20.09,9.78-23.59,21.53-25.41Z"/><path class="cls-2" d="M70.12,106.93c.24,.39,8.51,13.66,7.45,22.35,0,0-9.93,15.53-9.3,16.94-12.34,3.5-9.82,7.88-15.58-4.85h0c.81-2.56,1.33-6.01,1.02-10.59-1.02-13.29,4.68-15.2,6.36-18.64l.22,.12s5.02-2.21,9.82-5.34c0,0,0,0,0,0Z"/><path class="cls-2" d="M68.28,146.22c.63,1.4-.38,10.32-1.15,12.23-5.25,10.32-18.52,28.67-24.7,37.95,0,0,2.95,1.63,.38,6.19-2.58,4.56-2.7,8.41-2.7,8.41-.33,11.71-2.12,11.38-5.91,15.06-3.79,3.68-6.47-3.35-6.69-5.58-.22-2.23-3.57-6.47-4.57-7.7-1-1.23,0-3.79,0-8.59,.15-5.65,10.07-10.66,12.72-12.83,.3-11.83,9.17-34.62,12.94-43.51,0,0,2.58-1.63,4.11-6.48h0c5.76,12.73,3.24,8.35,15.58,4.85Z"/></g><g><path class="cls-3" d="M85.71,80.22c4.92-2.61,14.64-10.56,14.64-10.56l-4.91-11.94s-2.23-1.9-3.9-6.13c-1.68-4.24,.11-8.48,1.23-9.26,1.11-.78,1-6.8,1-6.8,2.79-12.27,15.17-14.28,15.17-14.28,18.3,3.57,15.17,19.19,16.06,19.52,5.54,5.74,1.67,10.96-3.23,14.17,.2,3.8-2.46,8.07-3.35,13.17-.22,2.57,10.71,5.91,14.06,8.59,.92,.74,1.98,1.23,3.03,1.56,0,0,0,0,0,0,2.75,.86,5.42,.58,5.42,.58,14.43,8.92,11.81,9.97,14.17,17.45,2.36,7.48-.39,10.37-.39,10.37,6.92,12.93,9.6,19.01,7.22,34.38,4.92,7.28,11.34,18.63,10.37,27.16-.42,3.06,1.69,48.19-3.41,53.79-3.23,6.93-25.11,17.07-21.12-3.02,.79-2.89,7.35-5.25,8.79-5.38s6.04-9.71,6.04-9.71c0,0-11.68-39.62-12.33-42.9-.66-3.28,1.58-11.15,1.58-11.15-.88-1.36-7.96-12.5-8.4-13.25,0,0-4.2,15.48-3.28,17.84,.92,2.36,4.59,20.86,4.59,20.86,.99,3.23,.93,12.52,.8,18.08-.06,2.58-.14,4.35-.14,4.35,2.34,16.52-8.03,38.56-13.92,47.9,0,2.57-.26,7.97-1.8,9.51s-2.31,13.11-2.31,13.11c2.06,5.65,.51,23.64,0,28.01s-10.28,27.24-11.56,30.58c-1.28,3.34,1.54,14.13,1.54,14.13,0,0,16.57,7.45,11.69,13.11-4.88,5.65-23.25-7.06-23.25-7.06,0,0-.16-5.87-.16-7.95-4.3-10.28-4.81-6.38,1.3-16.6,.46-5.23,0-16.22-.28-26.7-.24-9.14-.35-17.88,.41-22.05,2.19-4.58,6.18-19.67,6.35-25.28-.26-.91-2.33-15.04-2.46-16.99-.13-1.94-4.8,.13-4.93,1.3-.13,1.17-9.99,13.74-11.15,15.69-3.05,15.6,10.18,33.76-1.56,46.54,.26,12.32-2.33,23.47-2.33,23.47,3.64,7.61,6.86,16.04-5.7,15.3-5.86,3.55-30.46,36.3-23.59,1.56,4.8-6.81,18.96-7.29,17.76-19.97-2.76-17.29-1.41-35.8-2.33-52.68-.13-2.31-.3-4.59-.52-6.83-1.43-5.7,1.94-12.32,1.94-12.32,0,0,.26-1.2,.62-3.54,.59-3.83,1.44-10.72,1.84-20.44,.65-15.69,3.24-21.78,4.41-25.15,.27-.78,.72-2.42,1.25-4.52,1.79-7.01,4.54-19.13,4.84-21.02,.08-.57-.11-1.65-.49-3.1-2.38-9.05-12.4-32.48-13.41-36.41,0,0-9.93,15.53-9.3,16.94,.63,1.4-.38,10.32-1.15,12.23-5.25,10.32-18.52,28.67-24.7,37.95,0,0,2.95,1.63,.38,6.19-2.58,4.56-2.7,8.41-2.7,8.41-.33,11.71-2.12,11.38-5.91,15.06-3.79,3.68-6.47-3.35-6.69-5.58-.22-2.23-3.57-6.47-4.57-7.7-1-1.23,0-3.79,0-8.59,.15-5.65,10.07-10.66,12.72-12.83,.3-11.83,9.17-34.62,12.94-43.51,0,0,2.58-1.63,4.11-6.48,.81-2.56,1.33-6.01,1.02-10.59-1.02-13.29,4.68-15.2,6.36-18.64,.65-1.31,.7-2.86-.44-5.34-.92-20.09,9.78-23.59,21.53-25.41,.81-.13,1.63-.24,2.45-.36,.49-.05,1.22-.35,2.1-.81"/><path class="cls-3" d="M60.29,112.27s5.02-2.21,9.82-5.34c3.61-2.35,7.11-5.23,8.26-8.09,2.69-6.63,5.49-12.46,2.78-17.45,0-.01-.01-.03-.02-.05"/><path class="cls-3" d="M146.89,101.73c-11.06-9.44-11.38-23.21-11.38-23.49h0s0,0,0,0l-27.18,9.98-22.61-8.01h0"/><path class="cls-3" d="M154.7,106.64c-3.07-1.38-5.64-3.06-7.81-4.91"/><line class="cls-3" x1="108.32" y1="88.22" x2="109.75" y2="115.31"/><path class="cls-3" d="M70.12,106.92s0,0,0,0c.24,.39,8.51,13.66,7.45,22.35"/><path class="cls-3" d="M146.9,101.73h0s0,0,0,0c-7.38,12.45-14.23,17.73-19.99,19.38-10.35,2.97-17.16-5.8-17.16-5.8,0,0-4.66,9.14-15.46,7.63-6.04-.84-14.01-5.02-24.17-16.01"/><path class="cls-3" d="M143.42,136.55c-1.8-7.54,3.41-34.49,3.48-34.83"/><path class="cls-3" d="M52.7,141.38c5.76,12.73,3.24,8.35,15.58,4.85"/><polyline class="cls-3" points="151.82 149.81 157.14 152.4 161.92 141.02"/><path class="cls-3" d="M126.91,121.11s2.59,44.46-3.61,54.02l3.85-4.74,4.57-5.62,8.42-10.37"/><path class="cls-3" d="M94.29,122.95s.86,36.43,8.86,52.18c0,0,1.23,4.75,10.59,4.91,1.25,.02,2.36-.11,3.33-.35,4.63-1.12,6.22-4.56,6.22-4.56"/><line class="cls-3" x1="103.15" y1="175.13" x2="91.19" y2="165.65"/><path class="cls-3" d="M127.15,170.39s-2.42,19.33-5.19,24.04c-2.77,4.71-7.76,11.64-8.04,14.96-.28,3.33-3,22.03-3,22.03"/><path class="cls-3" d="M117.08,179.68s0,0,0,.01c-.12,.63-4.52,23.69-3.15,29.7"/><path class="cls-3" d="M145.53,193.34c.14-4.35-13.81-28.58-13.81-28.58"/><polyline class="cls-3" points="113.39 248.41 117.08 254.57 129.16 241.82 131.47 245.59"/><path class="cls-3" d="M77.31,262.61c3.25-.38,5.59-1.04,7.36-1.94,3.88-1.96,5.1-5.06,7.53-8.76,.74-1.12,1.58-2.29,2.64-3.51"/><path class="cls-3" d="M92.09,251.84c-2.69-7.99-12.96-11.9-12.96-11.9"/><path class="cls-3" d="M84.67,260.57s0,.04,0,.1c.08,1.73,1.3,25.14,8.62,34.28"/><path class="cls-3" d="M106.39,295.99c.08-.08,.16-.16,.24-.25,5.87-6.14,8.49-20.63,9.62-30.66,.69-6.07,.83-10.51,.83-10.51"/><path class="cls-3" d="M116.25,265.08c-.31,3.02,11.11,3.13,11.11,3.13"/><path class="cls-3" d="M106,232.72c3.99-34.32-8.62-59.62-8.62-59.62-2.34,.68-10.75,16.73-10.75,16.73"/></g></g><path class="cls-1" d="M352.72,213.88s1.42-5.63,4.6-7.96"/><path class="cls-3" d="M160.62,206.3v10.35s11.31-5.53,11.18-6.75"/><line class="cls-4" x1="42.43" y1="196.4" x2="35.64" y2="191.36"/><path class="cls-4" d="M22.92,212.78s4.08-6.59,8.75-8.17"/></svg>